<?xml version="1.0" encoding="UTF-8" standalone="no"?>
<!-- Created with Inkscape (http://www.inkscape.org/) -->

<svg
   xmlns:dc="http://purl.org/dc/elements/1.1/"
   xmlns:cc="http://creativecommons.org/ns#"
   xmlns:rdf="http://www.w3.org/1999/02/22-rdf-syntax-ns#"
   xmlns:svg="http://www.w3.org/2000/svg"
   xmlns="http://www.w3.org/2000/svg"
   version="1.1"
   width="250"
   height="250"
   id="svg4619">
  <defs
     id="defs4621" />
  <metadata
     id="metadata4624">
    <rdf:RDF>
      <cc:Work
         rdf:about="">
        <dc:format>image/svg+xml</dc:format>
        <dc:type
           rdf:resource="http://purl.org/dc/dcmitype/StillImage" />
        <dc:title></dc:title>
      </cc:Work>
    </rdf:RDF>
  </metadata>
  <g
     transform="translate(275,-2086.3622)"
     id="layer1">
    <path
       d="m -176.5959,2086.3622 c -5.8936,0 -10.6383,4.7447 -10.6383,10.6383 l 0,24.2686 c -28.3005,4.7532 -47.8723,14.7069 -47.8723,26.2633 0,23.4548 38.1032,29.2553 85.1064,29.2553 47.0032,0 85.106397,-4.942 85.106397,-29.2553 0,-12.2686 -16.7192,-22.7484 -47.872397,-27.0947 l 0,-23.4372 c 0,-5.8936 -4.7447,-10.6383 -10.6383,-10.6383 z m 5.3192,15.9574 42.5532,0 0,16.6224 c -5.1862,-0.3405 -14.0218,-0.6649 -21.2766,-0.6649 -7.374,0 -14.4532,0.3936 -21.2766,0.9973 z m -52.6926,80.5 10.1394,132.266 c 0,11.7505 25.6399,21.2766 63.8298,21.2766 38.1899,0 63.829797,-9.5261 63.829797,-21.2766 l 10.1393,-132.266 c -14.628197,7.2463 -42.223897,11.6926 -73.969097,11.6926 -31.7452,0 -59.3404,-4.4463 -73.9692,-11.6926 z"
       id="path5394"
       style="fill:#2888b2;fill-opacity:1;fill-rule:nonzero;stroke:none;display:inline;enable-background:new" />
  </g>
</svg>
