<?xml version="1.0" encoding="UTF-8" standalone="no"?>
<svg width="520px" height="520px" viewBox="0 0 520 520" version="1.1" xmlns="http://www.w3.org/2000/svg" xmlns:xlink="http://www.w3.org/1999/xlink" xmlns:sketch="http://www.bohemiancoding.com/sketch/ns">
    <!-- Generator: Sketch 3.0.2 (7799) - http://www.bohemiancoding.com/sketch -->
    <title>Slice 1</title>
    <description>Created with Sketch.</description>
    <defs></defs>
    <g id="Page-1" stroke="none" stroke-width="1" fill="none" fill-rule="evenodd" sketch:type="MSPage">
        <path d="M260,342 C305.287352,342 342,305.287352 342,260 C342,214.712648 305.287352,178 260,178 C214.712648,178 178,214.712648 178,260 C178,305.287352 214.712648,342 260,342 Z" id="Oval-1" fill="#FFFFFF" sketch:type="MSShapeGroup"></path>
        <path d="M306.708185,181.243251 C320.019,189.26632 334.520748,202.480672 342.66401,223.921717 C360.411643,270.650879 336.605371,304.563964 336.605371,304.563964 C336.605371,304.563964 247.364225,459.731969 247.105365,459.582516 C335.871188,458.293099 393.191272,422.46358 430.08649,358.559202 C446.60959,329.940361 461.674303,295.749695 457.756618,245.884881 C455.337472,215.093656 448.417266,193.362644 443.477173,181.243251 L306.708185,181.243251 Z" id="Path-2-copy" fill="#FFFFFF" sketch:type="MSShapeGroup"></path>
        <path d="M253.708185,202.243251 C267.019,210.26632 281.520748,223.480672 289.66401,244.921717 C307.411643,291.650879 283.605371,325.563964 283.605371,325.563964 C283.605371,325.563964 194.364225,480.731969 194.105365,480.582516 C282.871188,479.293099 340.191272,443.46358 377.08649,379.559202 C393.60959,350.940361 408.674303,316.749695 404.756618,266.884881 C402.337472,236.093656 395.417266,214.362644 390.477173,202.243251 L253.708185,202.243251 Z" id="Path-2-copy-3" fill="#FFFFFF" sketch:type="MSShapeGroup" transform="translate(227.161962, 255.243251) rotate(-120.000000) translate(-227.161962, -255.243251) "></path>
        <path d="M297.344561,237.90477 C310.655376,245.927839 325.157124,259.142191 333.300386,280.583236 C351.048019,327.312398 327.241747,361.225483 327.241747,361.225483 C327.241747,361.225483 238.000601,516.393488 237.741741,516.244035 C326.507564,514.954618 383.827648,479.125099 420.722866,415.220721 C437.245966,386.601879 452.310679,352.411214 448.392994,302.5464 C445.973848,271.755174 439.053642,250.024163 434.113549,237.90477 L297.344561,237.90477 Z" id="Path-2-copy-4" fill="#FFFFFF" sketch:type="MSShapeGroup" transform="translate(270.798338, 290.904770) rotate(-240.000000) translate(-270.798338, -290.904770) "></path>
    </g>
</svg>