<?xml version="1.0" encoding="UTF-8" standalone="no"?>
<!-- Created with Inkscape (http://www.inkscape.org/) -->

<svg
   xmlns:dc="http://purl.org/dc/elements/1.1/"
   xmlns:cc="http://creativecommons.org/ns#"
   xmlns:rdf="http://www.w3.org/1999/02/22-rdf-syntax-ns#"
   xmlns:svg="http://www.w3.org/2000/svg"
   xmlns="http://www.w3.org/2000/svg"
   version="1.1"
   width="42.330002"
   height="50"
   viewBox="0 0 42.330001 49.999997"
   id="Layer_1"
   xml:space="preserve"><metadata
   id="metadata19"><rdf:RDF><cc:Work
       rdf:about=""><dc:format>image/svg+xml</dc:format><dc:type
         rdf:resource="http://purl.org/dc/dcmitype/StillImage" /><dc:title></dc:title></cc:Work></rdf:RDF></metadata><defs
   id="defs17" />
<g
   transform="matrix(0.27142994,0,0,0.27142994,-71.882248,-80.870504)"
   id="g3">
	<path
   d="m 276.19637,357.52697 c -6.27848,-0.003 -11.36687,5.09539 -11.36837,11.36837 l 0.009,47.61014 c 0.002,6.29448 5.09939,11.37437 11.36987,11.38037 6.28398,-0.007 11.37337,-5.08939 11.36687,-11.37987 l 5e-4,-47.61714 c -0.002,-6.27048 -5.09789,-11.36587 -11.37737,-11.36187"
   id="path5"
   style="fill:#ffffff" />
	<path
   d="m 367.88088,314.7732 7.93511,-14.49161 c 0.42353,-0.75706 0.14651,-1.72713 -0.61855,-2.14666 -0.77656,-0.41753 -1.73413,-0.13251 -2.14266,0.62855 l -8.01812,14.63662 c -6.74351,-2.99273 -14.29359,-4.67836 -22.2752,-4.67036 -7.96511,-0.007 -15.50169,1.67013 -22.2257,4.65435 l -8.02361,-14.60411 c -0.41404,-0.77056 -1.38111,-1.05208 -2.13567,-0.62755 -0.77156,0.41153 -1.05358,1.37961 -0.62604,2.13516 l 7.9391,14.47911 c -15.59919,8.04662 -26.1375,23.36529 -26.1295,40.95213 l 102.41334,-0.0105 c 0.002,-17.58434 -10.51731,-32.87101 -26.0925,-40.93513 m -48.4127,22.39271 c -2.35818,-0.005 -4.27983,-1.92214 -4.28033,-4.29082 10e-4,-2.35919 1.92115,-4.29833 4.28383,-4.29833 2.37468,-0.002 4.29533,1.93914 4.29833,4.29732 10e-4,2.36669 -1.92365,4.29033 -4.30183,4.29183 m 46.63206,-0.008 c -2.36718,0.002 -4.29882,-1.91414 -4.29432,-4.29283 0,-2.35368 1.92414,-4.29432 4.29632,-4.30232 2.35468,0.007 4.28633,1.94814 4.28433,4.30482 0.002,2.37019 -1.91914,4.29083 -4.28633,4.29033"
   id="path7"
   style="fill:#ffffff" />
	<path
   d="m 291.99658,433.45028 c -0.006,6.71851 5.41691,12.14192 12.12943,12.13942 l 8.26063,5e-4 0.01,25.19143 c -0.002,6.27098 5.09389,11.36937 11.36087,11.37037 6.28248,0 11.37187,-5.10339 11.36637,-11.37937 l 0.001,-25.18543 15.34917,-0.003 -10e-4,25.19043 c 0.005,6.27198 5.10739,11.37537 11.37237,11.36537 6.28148,0.004 11.37437,-5.09939 11.37337,-11.37537 l -0.007,-25.18343 8.29063,-0.002 c 6.68951,0.002 12.13143,-5.43391 12.13093,-12.13742 l -0.0125,-73.78565 -101.64227,0.0185 0.0185,73.77615 z"
   id="path9"
   style="fill:#ffffff" />
	<path
   d="m 409.37755,357.51197 c -6.27798,-0.005 -11.36637,5.09339 -11.36537,11.37237 l 0.005,47.61014 c 0.003,6.28648 5.08889,11.37237 11.37237,11.36837 6.27798,-10e-4 11.36037,-5.08289 11.36537,-11.37237 l -0.0125,-47.60914 c -5e-4,-6.28098 -5.08539,-11.37087 -11.36437,-11.36937"
   id="path11"
   style="fill:#ffffff" />
	<path
   d="m 276.19637,357.52697 c -6.27848,-0.003 -11.36687,5.09539 -11.36837,11.36837 l 0.009,47.61014 c 0.002,6.29448 5.09239,11.37337 11.37087,11.37237 6.28248,5e-4 11.37187,-5.08139 11.36537,-11.37187 l 5e-4,-47.61714 c -0.002,-6.27048 -5.09739,-11.36587 -11.37687,-11.36187 m 91.68451,-42.75377 7.93511,-14.49161 c 0.42353,-0.75706 0.14551,-1.72163 -0.62205,-2.14916 -0.77406,-0.40953 -1.73013,-0.13151 -2.13916,0.63105 l -8.01512,14.64262 c -6.74601,-3.00073 -14.29209,-4.68536 -22.2782,-4.67636 -7.96511,-0.007 -15.50919,1.67063 -22.2257,4.65435 l -8.02361,-14.60411 c -0.41754,-0.77106 -1.37711,-1.04958 -2.13517,-0.62955 -0.77206,0.41553 -1.05408,1.38161 -0.62654,2.13716 l 7.9391,14.48061 c -15.59869,8.04512 -26.1375,23.36379 -26.129,40.95113 l 102.41334,-0.0105 c 0.002,-17.58484 -10.51781,-32.87151 -26.093,-40.93563 m -48.4127,22.39271 c -2.35818,-0.005 -4.27983,-1.92214 -4.28033,-4.29082 10e-4,-2.35919 1.91765,-4.29883 4.28383,-4.29833 2.37468,-0.002 4.29533,1.93914 4.29833,4.29732 10e-4,2.36669 -1.92365,4.29033 -4.30183,4.29183 m 46.63206,-0.008 c -2.36718,0.002 -4.29482,-1.91714 -4.29432,-4.29283 0.008,-2.35218 1.92414,-4.29432 4.29632,-4.30232 2.35468,0.007 4.28633,1.94814 4.28433,4.30482 0.005,2.37069 -1.91914,4.29083 -4.28633,4.29033 m -74.12166,22.51622 0.0175,73.78315 c -0.005,6.71151 5.42291,12.12842 12.13093,12.12992 l 8.26013,0.003 0.01,25.19143 c -0.001,6.27098 5.09689,11.37037 11.36087,11.37037 6.28248,0 11.37187,-5.10339 11.37387,-11.37837 l -0.006,-25.18643 15.34917,-0.003 0.007,25.19043 c -0.002,6.26798 5.09989,11.37537 11.36537,11.36537 6.28148,0.004 11.37437,-5.09939 11.37337,-11.37537 l -0.007,-25.18343 8.28863,-0.007 c 6.69201,0.002 12.13543,-5.42241 12.13643,-12.13392 l -0.0125,-73.78465 -101.64627,0.0175 z m 128.76834,9.20471 c -10e-4,-6.27898 -5.09039,-11.36787 -11.36887,-11.36637 -6.27798,-0.005 -11.36637,5.09339 -11.36537,11.37237 l 0.008,47.61114 c -5.1e-4,6.28548 5.08638,11.36537 11.36886,11.36737 6.27798,-0.001 11.36437,-5.08189 11.36537,-11.37237 l -0.008,-47.61214 z"
   id="path13"
   style="fill:#bbbbbb;fill-opacity:1" />
</g>
</svg>