<?xml version="1.0" encoding="UTF-8" standalone="no"?>
<!-- Created with Inkscape (http://www.inkscape.org/) -->

<svg
   xmlns:dc="http://purl.org/dc/elements/1.1/"
   xmlns:cc="http://creativecommons.org/ns#"
   xmlns:rdf="http://www.w3.org/1999/02/22-rdf-syntax-ns#"
   xmlns:svg="http://www.w3.org/2000/svg"
   xmlns="http://www.w3.org/2000/svg"
   version="1.1"
   width="250"
   height="250"
   id="svg4619">
  <defs
     id="defs4621" />
  <metadata
     id="metadata4624">
    <rdf:RDF>
      <cc:Work
         rdf:about="">
        <dc:format>image/svg+xml</dc:format>
        <dc:type
           rdf:resource="http://purl.org/dc/dcmitype/StillImage" />
        <dc:title></dc:title>
      </cc:Work>
    </rdf:RDF>
  </metadata>
  <g
     transform="translate(275,-2086.3622)"
     id="layer1">
    <path
       d="m -41.722357,2103.0845 c -14.937453,-14.9375 -33.101417,-20.9919 -40.570018,-13.5233 l -27.046675,27.0467 c 7.46861,-7.4686 25.632525,-1.4141 40.570028,13.5233 14.937502,14.9375 20.991964,33.1014 13.523362,40.57 l 27.046665,-27.0466 c 7.468602,-7.4686 1.414141,-25.6326 -13.523362,-40.5701 z m -37.189167,37.1892 c -14.937503,-14.9374 -33.101426,-20.9919 -40.570026,-13.5233 l -10.14251,10.1425 c 7.46861,-7.4686 25.63252,-1.4141 40.570024,13.5233 14.937452,14.9375 20.991964,33.1015 13.523362,40.57 l 10.142502,-10.1425 c 7.468612,-7.4686 1.41414,-25.6325 -13.523352,-40.57 z m -20.285014,20.285 c -14.937502,-14.9374 -33.101412,-20.9919 -40.570022,-13.5233 l -10.14251,10.1425 c 7.46861,-7.4686 25.63253,-1.4141 40.57002,13.5233 14.937453,14.9375 20.991964,33.1015 13.523362,40.5701 l 10.142502,-10.1425 c 7.468612,-7.4686 1.414101,-25.6326 -13.523352,-40.5701 z m -20.285012,20.285 c -14.9375,-14.9374 -33.10142,-20.9919 -40.57003,-13.5233 l -56.2064,56.2064 -11.41034,11.4103 c 7.51436,7.5144 18.21565,9.2923 26.51843,5.3883 0.6241,5.3274 3.01863,10.6254 7.28995,14.8967 4.2713,4.2714 9.56928,6.6659 14.89681,7.2899 -3.90406,8.3028 -2.12617,19.0041 5.3882,26.5185 l 11.41029,-11.4103 56.20644,-56.2064 c 7.468562,-7.4686 1.4141,-25.6326 -13.52335,-40.5701 z m -91.81084,69.6241 c -8.30279,3.9041 -19.00407,2.1262 -26.51843,-5.3882 L -275,2336.3622 l 91.28256,-37.1892 c -7.51436,-7.5143 -9.29226,-18.2157 -5.3882,-26.5185 -5.32753,-0.624 -10.62551,-3.0185 -14.89682,-7.2899 -4.2713,-4.2713 -6.66584,-9.5693 -7.28993,-14.8968 z"
       id="path5061"
       style="fill:#bbbbbb;fill-opacity:1;fill-rule:nonzero;stroke:none;display:inline;enable-background:new" />
  </g>
</svg>
